<svg width="56" height="56" viewBox="0 0 56 56" fill="none" xmlns="http://www.w3.org/2000/svg">
<path d="M0 7C0 3.13401 3.13401 0 7 0H49C52.866 0 56 3.13401 56 7V49C56 52.866 52.866 56 49 56H7C3.13401 56 0 52.866 0 49V7Z" fill="#D1E9FF"/>
<path fill-rule="evenodd" clip-rule="evenodd" d="M27.9975 18.2603C26.7316 18.2603 25.6077 18.8672 24.9004 19.8086C24.6599 20.1288 24.4681 20.487 24.3356 20.8724C24.2225 21.2016 23.864 21.3767 23.5349 21.2636C23.2058 21.1505 23.0307 20.792 23.1438 20.4628C23.3198 19.9507 23.5744 19.4755 23.8928 19.0516C24.8279 17.807 26.3185 17 27.9975 17C30.8314 17 33.1287 19.2973 33.1287 22.1312C33.1287 23.6074 32.33 24.8822 31.3752 25.8654C30.4138 26.8555 29.2256 27.6229 28.2793 28.0961C28.2723 28.0996 28.2653 28.1029 28.2582 28.1061L18.3559 32.6072C18.0391 32.7512 17.6655 32.6111 17.5215 32.2943C17.3775 31.9775 17.5176 31.6039 17.8344 31.4599L27.7259 26.9637C28.5783 26.5363 29.6354 25.8481 30.4711 24.9875C31.3168 24.1166 31.8684 23.1409 31.8684 22.1312C31.8684 19.9934 30.1353 18.2603 27.9975 18.2603Z" fill="#1849A9"/>
<path fill-rule="evenodd" clip-rule="evenodd" d="M28 27.2646L34.0622 29.447C35.0905 29.8172 35.6501 30.0187 36.1689 30.2617C38.7558 31.4734 40.8441 33.5426 42.0794 36.1183C42.3271 36.6349 42.5337 37.1926 42.9132 38.2173L42.9276 38.2561C42.9276 38.2561 42.9284 38.2582 42.9291 38.2601C42.9377 38.2822 42.9756 38.3799 42.9903 38.4768C43.0582 38.9259 42.7632 39.3498 42.3184 39.4421C42.2224 39.462 42.1176 39.4603 42.0939 39.46C42.0919 39.4599 42.0897 39.4599 42.0897 39.4599H13.9103C13.9103 39.4599 13.9081 39.4599 13.9061 39.46C13.8824 39.4603 13.7776 39.462 13.6816 39.4421C13.2368 39.3498 12.9418 38.9259 13.0097 38.4768C13.0244 38.3799 13.0624 38.2821 13.0709 38.2601C13.0716 38.2582 13.0724 38.2562 13.0724 38.2562L13.0757 38.2474L13.0868 38.2175C13.4663 37.1927 13.6729 36.6349 13.9206 36.1183C15.1559 33.5426 17.2442 31.4734 19.8311 30.2617C20.3499 30.0187 20.9095 29.8172 21.9378 29.4471L28 27.2646Z" fill="#1849A9"/>
</svg>
