<svg width="48" height="49" viewBox="0 0 48 49" fill="none" xmlns="http://www.w3.org/2000/svg">
<path d="M0 7.5C0 3.63401 3.13401 0.5 7 0.5H41C44.866 0.5 48 3.63401 48 7.5V41.5C48 45.366 44.866 48.5 41 48.5H7C3.13401 48.5 0 45.366 0 41.5V7.5Z" fill="#D1E9FF"/>
<path d="M24 20.5V24.5M24 28.5H24.01M34 24.5C34 30.0228 29.5228 34.5 24 34.5C18.4772 34.5 14 30.0228 14 24.5C14 18.9772 18.4772 14.5 24 14.5C29.5228 14.5 34 18.9772 34 24.5Z" stroke="#1849A9" stroke-width="2" stroke-linecap="round" stroke-linejoin="round"/>
</svg>
