<svg width="161" height="160" viewBox="0 0 161 160" fill="none" xmlns="http://www.w3.org/2000/svg">
<path d="M1.97045 64.4992C9.19545 27.7176 41.5109 0 80.3945 0C119.278 0 151.594 27.7176 158.819 64.4992L144.106 67.3892C138.326 37.4384 111.922 14.9754 80.3945 14.9754C48.8672 14.9754 22.4632 37.5698 16.6832 67.3892L1.97045 64.4992ZM15.3695 72.9064L15.6323 76.5846L5.25454 80.6568L16.1577 83.4154L16.4204 86.4368L6.04272 90.6404L16.9459 93.1363L17.2086 96.6831L1.0509 92.4795L0.788179 89.4581L10.7718 85.1232L0.262723 82.3645L0 79.3432L15.3695 72.9064ZM19.4418 99.9672L20.4927 102.989L7.88181 114.68L6.69954 111.264L9.58953 108.768L7.22499 102.463L3.41545 102.332L2.23318 99.0476L19.4418 99.9672ZM11.9541 106.535L16.0263 102.857L10.5091 102.594L11.9541 106.535ZM10.6404 114.943L13.7932 115.468C13.5304 117.307 13.6618 118.883 14.5814 120.46C15.3695 121.642 16.2891 122.167 17.0773 121.642C17.8654 121.248 17.8654 120.46 17.0773 117.833C16.1577 114.68 15.7636 112.447 18.5223 110.87C21.0182 109.425 23.7768 110.345 25.4845 113.103C26.6668 115.074 27.0609 117.044 26.7982 119.146L23.6454 119.015C23.7768 117.307 23.5141 115.862 22.8572 114.68C22.2004 113.498 21.2809 113.235 20.6241 113.629C19.7045 114.154 19.8359 114.943 20.6241 117.57C21.5436 120.722 21.5436 122.824 19.1791 124.269C16.5518 125.846 13.7932 124.795 11.9541 121.905C10.7718 119.803 10.2464 117.307 10.6404 114.943ZM29.2941 119.409L31.6586 121.905L27.1922 126.24L31.6586 130.837L36.125 126.502L38.4895 128.998L27.0609 139.901L24.6963 137.406L29.2941 133.071L24.8277 128.473L20.23 132.808L17.8654 130.312L29.2941 119.409ZM34.9427 136.486C37.4386 132.677 42.2991 131.494 46.24 134.122C48.7359 135.698 49.6554 137.537 50.0495 139.507L46.7654 140.427C46.3713 138.851 45.7145 137.537 44.4009 136.749C42.1677 135.304 39.4091 136.092 37.8327 138.325C36.3877 140.558 36.6504 143.448 38.8836 145.025C40.3286 145.944 41.6422 146.076 43.35 145.681L44.0068 148.703C41.6422 149.228 39.6718 149.228 37.0445 147.521C33.3663 145.156 32.4468 140.164 34.9427 136.486ZM52.414 137.931L55.6981 139.245L51.1004 150.936L58.4568 153.826L57.2745 156.716L46.7654 152.644L52.414 137.931ZM60.5586 150.805L62.1349 142.003L65.5504 142.66L63.974 151.461C63.5799 153.957 64.4995 155.534 66.6013 155.928C68.7031 156.322 70.1481 155.271 70.6736 152.775L72.2499 143.842L75.6654 144.499L74.089 153.3C73.3008 158.03 70.1481 159.869 66.0759 159.08C61.8722 158.161 59.7704 155.271 60.5586 150.805ZM77.2418 144.368L84.5981 143.974C86.4372 143.842 87.8822 144.368 88.8017 145.156C89.5899 145.813 89.984 146.732 89.984 147.783C90.1154 149.491 89.1958 150.542 88.0136 151.33C89.8527 151.987 91.0349 152.906 91.1663 155.008C91.2976 157.898 89.0645 159.475 85.5176 159.606L78.0299 160L77.2418 144.368ZM86.5686 148.571C86.5686 147.521 85.649 146.995 84.204 146.995L80.7886 147.126L80.9199 150.411L84.0727 150.279C85.649 150.411 86.5686 149.885 86.5686 148.571ZM85.1236 153.3L81.1827 153.432L81.314 156.847L85.3863 156.716C86.9627 156.585 87.7508 156.059 87.7508 154.877C87.6195 153.826 86.8313 153.169 85.1236 153.3ZM91.8231 143.58L94.8445 142.66L104.697 149.885L102.069 140.558L105.354 139.639L109.82 154.745L106.93 155.534L96.8149 148.046L99.7049 157.635L96.4208 158.555L91.8231 143.58ZM115.469 144.893L105.485 139.639L109.032 137.668L115.469 141.346L115.6 133.99L119.015 132.02L118.49 143.186L121.643 148.571L118.621 150.279L115.469 144.893ZM122.825 138.719C119.804 135.304 119.935 130.312 123.613 127.159C125.846 125.189 127.817 124.795 129.919 124.926V128.342C128.342 128.342 126.897 128.604 125.715 129.655C123.744 131.363 123.744 134.384 125.584 136.355C127.423 138.325 130.313 138.851 132.283 137.012C133.597 135.829 133.991 134.516 134.122 132.939L137.275 133.202C137.144 135.567 136.618 137.537 134.254 139.639C130.707 142.529 125.846 142.135 122.825 138.719ZM137.932 130.181L140.296 127.422L143.055 129.787L140.69 132.545L137.932 130.181ZM138.194 123.875C134.385 121.511 132.94 116.65 135.567 112.578C137.144 110.082 138.851 109.031 140.953 108.637L142.004 111.79C140.428 112.184 139.245 112.972 138.326 114.286C136.881 116.519 137.8 119.278 140.034 120.722C142.267 122.167 145.288 121.773 146.602 119.409C147.521 117.833 147.521 116.519 147.259 114.943L150.28 114.286C150.937 116.519 150.937 118.621 149.229 121.248C146.864 125.189 142.004 126.24 138.194 123.875ZM146.47 110.082C142.135 108.637 139.771 104.171 141.216 99.5731C142.661 94.9754 147.259 92.7422 151.462 94.1872C155.666 95.5008 158.162 100.099 156.585 104.696C155.009 109.294 150.805 111.527 146.47 110.082ZM150.543 97.734C147.915 96.9458 145.157 98.1281 144.369 100.755C143.449 103.383 145.025 105.878 147.521 106.798C150.149 107.586 152.776 106.404 153.695 103.777C154.615 101.018 153.17 98.5222 150.543 97.734ZM144.237 90.9031L144.369 87.225L151.199 83.4154L144.763 78.9491L144.894 75.2709L160.658 76.0591L160.526 79.4745L150.28 78.9491L156.848 83.6782V83.8095L150.017 87.8818L160.264 88.4072L160.132 91.8227L144.237 90.9031Z" fill="white"/>
<path d="M115.148 63.0655C121.848 66.3496 126.051 71.6041 128.285 78.6977C130.649 86.1854 130.386 94.3299 128.285 101.818C123.424 118.238 108.055 129.929 91.5027 132.688C72.8491 135.841 52.7505 129.535 40.4023 114.822C27.266 99.1903 23.5878 77.6468 31.8637 58.8619C35.2792 51.1115 40.6651 44.2806 47.2332 39.0261C54.0641 33.6402 62.7341 29.0425 71.5355 27.9916C78.8918 27.2034 89.4009 28.7798 93.4732 36.0048C97.02 42.1788 90.7146 49.7979 83.8837 48.3529C82.1759 47.9588 80.5996 47.0392 79.2859 45.7256C77.9723 44.2806 77.1841 42.0474 74.8196 42.3102C73.2432 42.4415 72.0609 43.7552 71.9296 45.2002C71.6669 47.0392 72.9805 48.6156 74.4255 49.5351C77.9723 51.7683 82.1759 51.8997 86.2482 52.031C91.5027 52.1624 96.7573 52.4251 101.224 55.3151C104.376 57.6796 106.872 60.8323 107.529 64.9046C108.186 69.3709 107.004 73.8373 103.325 76.7273C96.3632 82.3759 87.1678 77.3841 83.2269 70.5532C81.9132 68.1887 80.2055 64.2478 77.1841 63.591C75.7391 63.3282 73.9 64.1164 73.6373 65.6928C73.2432 68.1887 76.1332 69.5023 77.4468 70.9473C83.2268 77.7782 71.01 85.3972 67.2005 77.5154C66.281 75.545 66.9378 73.8373 66.675 71.8668C66.4123 69.8964 64.1791 69.6337 62.7341 70.5532C61.0264 71.7355 60.1069 74.2314 59.7128 76.0704C58.5305 80.7995 59.056 85.7913 60.6323 90.389C64.836 102.868 76.5273 109.831 89.5323 109.305C97.4141 109.043 104.77 106.284 110.288 100.504C115.411 95.1181 118.17 87.8931 118.564 80.5368C118.695 77.5154 118.432 74.3627 117.644 71.3414C117.25 69.765 116.856 68.32 116.199 66.875C115.936 66.0869 115.542 65.43 115.28 64.6419C115.148 64.2478 114.229 62.5401 115.148 63.0655C115.28 63.1969 114.623 62.8028 115.148 63.0655ZM123.818 48.8783C120.009 42.5729 111.47 41.522 104.77 43.3611C102.8 43.8865 100.83 44.6747 98.9905 45.5942C98.0709 46.1197 97.1514 46.6451 96.2318 47.1706C95.9691 47.302 94.3927 48.2215 95.3123 48.4842C96.6259 48.8783 98.2023 48.6156 99.6473 48.747C101.355 49.0097 103.063 49.5351 104.77 50.4547C109.368 52.8192 112.127 57.9424 117.381 59.1246C120.14 59.7814 123.161 59.256 124.606 56.4974C125.789 54.1328 125.263 51.1115 123.818 48.8783C126.971 53.6074 120.665 43.6238 123.818 48.8783Z" fill="white"/>
</svg>
